<svg width="411" height="361" viewBox="0 0 411 361" fill="none" xmlns="http://www.w3.org/2000/svg">
<path d="M68.6787 316.669V323.18H117.364V316.669H68.6787Z" fill="#E0E0E0"/>
<path d="M75.3371 316.93C75.5101 316.93 75.5965 318.319 75.5965 319.968C75.5965 321.617 75.5101 323.093 75.3371 323.093C75.1642 323.093 74.9912 321.704 74.9912 319.968C74.9912 318.232 75.1642 316.93 75.3371 316.93Z" fill="#FAFAFA"/>
<path d="M74.2126 316.756C74.3855 316.756 74.5584 318.145 74.5584 319.881C74.5584 321.617 74.3855 322.92 74.2126 322.92C74.0396 322.92 73.9531 321.531 73.9531 319.881C73.9531 318.232 74.0396 316.756 74.2126 316.756Z" fill="#FAFAFA"/>
<path d="M113.559 316.93C113.732 316.93 113.905 318.319 113.905 319.968C113.905 321.617 113.732 323.093 113.559 323.093C113.386 323.093 113.3 321.704 113.3 319.968C113.3 318.232 113.386 316.93 113.559 316.93Z" fill="#FAFAFA"/>
<path d="M112.521 316.756C112.694 316.756 112.867 318.145 112.867 319.881C112.867 321.617 112.694 322.92 112.521 322.92C112.348 322.92 112.262 321.531 112.262 319.881C112.262 318.232 112.348 316.756 112.521 316.756Z" fill="#FAFAFA"/>
<path d="M106.209 320.142C106.209 320.315 100.588 320.402 93.7567 320.402C86.9251 320.402 81.2178 320.315 81.2178 320.142C81.2178 319.968 86.8387 319.794 93.7567 319.794C100.675 319.794 106.209 319.968 106.209 320.142Z" fill="#FAFAFA"/>
<path d="M68.4189 346.097V359.119H117.104V346.097H68.4189Z" fill="#E0E0E0"/>
<path d="M117.796 355.473H117.537L116.672 355.907C115.61 356.332 114.51 356.652 113.386 356.862C111.561 357.172 109.686 356.899 108.024 356.08C107.01 355.517 106.149 354.712 105.517 353.737C104.759 352.649 104.421 351.323 104.565 350.004C104.719 349.272 105.045 348.587 105.517 348.007C105.767 347.705 106.086 347.468 106.448 347.317C106.809 347.166 107.202 347.105 107.592 347.139C107.985 347.174 108.365 347.293 108.708 347.488C109.051 347.682 109.349 347.948 109.581 348.268C110.105 348.881 110.436 349.636 110.532 350.438C110.603 351.291 110.493 352.15 110.21 352.958C109.927 353.766 109.477 354.505 108.889 355.126C107.627 356.38 105.983 357.175 104.22 357.383C102.375 357.544 100.517 357.307 98.7716 356.688C96.902 356.119 95.2454 355 94.0155 353.476C93.382 352.678 92.9916 351.714 92.8913 350.698C92.8468 350.161 92.9163 349.62 93.0952 349.111C93.274 348.602 93.5582 348.137 93.929 347.747C94.3758 347.378 94.9137 347.138 95.4856 347.052C96.034 347.053 96.572 347.203 97.0421 347.486C97.9654 348.12 98.6145 349.082 98.8581 350.177C99.0573 351.216 98.987 352.289 98.6538 353.292C98.3206 354.296 97.7358 355.196 96.9556 355.907C95.3792 357.201 93.4503 357.988 91.4212 358.164C89.5259 358.359 87.6107 358.152 85.8003 357.556C83.9884 357.059 82.4388 355.877 81.4766 354.257C80.9827 353.495 80.6712 352.628 80.5662 351.724C80.4612 350.821 80.5656 349.905 80.8713 349.049C81.0393 348.62 81.3079 348.239 81.6541 347.937C82.0003 347.634 82.4141 347.42 82.8602 347.313C83.2973 347.234 83.746 347.247 84.1778 347.352C84.6095 347.456 85.0149 347.65 85.368 347.92C85.974 348.462 86.4049 349.172 86.6053 349.961C86.8056 350.75 86.7662 351.581 86.4921 352.348C86.0501 353.723 85.2065 354.932 84.0708 355.82C82.1893 357.387 79.8535 358.3 77.4123 358.424C75.551 358.486 73.7051 358.067 72.0508 357.209C71.037 356.686 70.1282 355.98 69.3701 355.126C69.117 354.945 68.9097 354.707 68.7647 354.431C68.5918 354.344 68.5918 354.257 68.5918 354.257C69.6264 355.372 70.8578 356.285 72.2237 356.949C73.7938 357.774 75.5553 358.164 77.3258 358.077C79.7166 357.96 81.9997 357.043 83.8114 355.473C84.8456 354.599 85.6229 353.458 86.0598 352.174C86.308 351.509 86.3413 350.782 86.1551 350.096C85.9688 349.411 85.5724 348.801 85.0221 348.354C84.741 348.141 84.4206 347.984 84.0793 347.895C83.738 347.806 83.3825 347.785 83.0331 347.834C82.6713 347.923 82.3348 348.094 82.0498 348.335C81.7648 348.576 81.5391 348.88 81.3901 349.223C81.1099 349.991 81.0109 350.814 81.1009 351.628C81.191 352.441 81.4675 353.222 81.909 353.91C82.8288 355.424 84.2781 356.538 85.9733 357.035C87.7295 357.607 89.5892 357.785 91.4212 357.556C93.3027 357.439 95.0943 356.707 96.5233 355.473C97.2363 354.829 97.7705 354.011 98.0737 353.098C98.3769 352.185 98.4386 351.208 98.2528 350.264C98.0766 349.347 97.5486 348.537 96.7827 348.007C96.412 347.777 95.9787 347.67 95.5441 347.702C95.1095 347.733 94.6957 347.9 94.3614 348.181C94.0531 348.501 93.8165 348.883 93.6674 349.302C93.5182 349.722 93.46 350.168 93.4966 350.612C93.5644 351.541 93.9282 352.423 94.5343 353.129C95.6912 354.537 97.2195 355.59 98.9446 356.167C100.598 356.796 102.38 357.005 104.133 356.775C105.789 356.669 107.339 355.922 108.457 354.691C109.007 354.156 109.432 353.504 109.701 352.783C109.97 352.063 110.077 351.292 110.013 350.525C109.988 349.821 109.726 349.147 109.271 348.611C108.816 348.075 108.194 347.71 107.506 347.573C107.192 347.576 106.882 347.647 106.598 347.782C106.315 347.917 106.063 348.112 105.863 348.354C105.457 348.866 105.162 349.458 104.998 350.091C104.85 351.304 105.125 352.53 105.776 353.563C106.405 354.465 107.234 355.207 108.197 355.733C109.787 356.58 111.608 356.884 113.386 356.601C114.511 356.442 115.614 356.151 116.672 355.733L117.796 355.473Z" fill="#FAFAFA"/>
<path d="M72.7432 323.354V346.011H117.079V323.354H72.7432Z" fill="#EBEBEB"/>
<path d="M80.1799 324.135C80.3528 324.135 80.4393 329.083 80.4393 335.159C80.4393 341.236 80.3528 346.097 80.1799 346.097C80.0069 346.097 79.834 341.149 79.834 335.159C79.834 329.17 80.0069 324.135 80.1799 324.135Z" fill="#E0E0E0"/>
<path d="M83.552 323.874C83.7249 323.874 83.8114 328.736 83.8114 334.726C83.8114 340.715 83.7249 345.49 83.552 345.49C83.379 345.49 83.2061 340.715 83.2061 334.726C83.2061 328.736 83.379 323.874 83.552 323.874Z" fill="#E0E0E0"/>
<path d="M112.089 323.18C112.261 323.18 112.434 328.215 112.434 334.552C112.434 340.889 112.261 345.924 112.089 345.924C111.916 345.924 111.829 340.802 111.829 334.552C111.829 328.302 112.002 323.18 112.089 323.18Z" fill="#E0E0E0"/>
<path d="M108.197 323.44C108.37 323.44 108.457 328.389 108.457 334.552C108.457 340.715 108.37 345.663 108.197 345.663C108.025 345.663 107.852 340.715 107.852 334.552C107.852 328.389 108.025 323.44 108.197 323.44Z" fill="#E0E0E0"/>
<path d="M346.869 273.959C351.452 271.529 356.814 271.268 361.916 272.05C364.683 272.57 367.536 273.352 369.439 275.435C371.341 277.519 371.601 281.164 369.525 282.901C367.45 284.637 366.412 284.116 364.769 284.116C360.791 284.029 356.381 283.335 353.182 285.765C351.366 287.154 350.155 289.411 347.993 290.106C345.831 290.8 343.41 289.498 342.286 287.588C341.264 285.575 341.047 283.246 341.68 281.078C341.925 279.565 342.523 278.131 343.424 276.894C344.326 275.657 345.506 274.651 346.869 273.959Z" fill="#EBEBEB"/>
<path d="M336.319 253.473C339.087 257.553 344.621 256.25 347.129 253.733C349.637 251.216 350.761 247.743 351.712 244.358C353.96 236.545 356.209 228.385 354.479 220.485C354.101 218.098 353.051 215.869 351.453 214.061C350.672 213.137 349.658 212.44 348.517 212.043C347.376 211.646 346.15 211.563 344.967 211.804C342.2 212.586 340.47 215.277 339.26 217.881C335.64 225.474 333.722 233.77 333.639 242.187C333.639 246.181 334.071 250.261 336.319 253.473Z" fill="#EBEBEB"/>
<path d="M328.623 259.289C331.649 255.643 332.254 250.347 330.871 245.833C329.487 241.319 326.461 237.413 322.915 234.201C318.766 230.467 313.915 227.604 308.647 225.78C306.622 224.938 304.437 224.553 302.248 224.652C300.086 224.912 297.837 226.041 296.886 227.951C295.935 229.86 296.8 234.288 298.356 237.152C301.104 242.157 304.226 246.945 307.695 251.476C310.549 255.122 313.749 258.681 317.986 260.33C322.223 261.98 326.72 261.719 328.968 258.768" fill="#EBEBEB"/>
<path d="M336.146 314.325L336.405 312.502C336.492 311.113 336.665 309.464 336.838 307.467C337.088 305.019 337.464 302.585 337.962 300.176C338.602 297.209 339.499 294.304 340.643 291.495C341.742 288.696 343.226 286.067 345.053 283.682C346.56 281.757 348.444 280.162 350.587 278.994C352.071 278.296 353.642 277.8 355.257 277.518C355.873 277.544 356.489 277.456 357.073 277.258H355.257C353.546 277.372 351.873 277.814 350.328 278.56C348.051 279.635 346.064 281.243 344.534 283.248C342.6 285.653 341.054 288.348 339.951 291.234C338.818 294.078 337.922 297.01 337.27 300.002C336.826 302.443 336.509 304.906 336.319 307.381C336.146 309.551 336.146 311.287 336.059 312.416C335.997 313.053 336.026 313.696 336.146 314.325Z" fill="#E0E0E0"/>
<path d="M336.492 310.419V307.207C336.492 305.037 336.492 301.999 336.578 298.266C336.838 290.713 337.443 282.64 338.654 271.181C339.864 259.723 341.507 247.917 343.151 239.757C343.496 237.963 343.842 236.313 344.188 234.809L345.053 231.076L345.658 228.732C345.745 228.124 345.831 227.864 345.745 227.864L345.485 228.645L344.794 230.989C344.448 232.031 344.188 233.246 343.756 234.722C343.323 236.198 342.978 237.847 342.632 239.67C340.541 249.269 338.982 258.978 337.962 268.751C336.665 280.21 336.146 290.713 336.06 298.266C336.06 301.999 336.146 305.037 336.233 307.207C336.238 308.02 336.295 308.832 336.405 309.638C336.405 310.159 336.405 310.419 336.492 310.419Z" fill="#E0E0E0"/>
<path d="M336.492 290.366C336.603 289.502 336.603 288.626 336.492 287.762C336.405 286.199 336.146 283.769 335.713 280.904C335.202 277.527 334.451 274.19 333.465 270.921C332.397 266.853 331.009 262.876 329.314 259.028C326.438 251.952 322.274 245.476 317.035 239.93C316.151 238.964 315.197 238.064 314.181 237.239L312.97 236.111L311.846 235.416C310.463 234.461 309.771 233.94 309.684 234.027C309.598 234.114 312.711 236.024 316.689 240.278C320.667 244.531 325.163 251.215 328.622 259.375C330.289 263.185 331.704 267.099 332.86 271.095C333.897 274.741 334.676 278.126 335.195 280.991C335.713 283.855 336.059 286.199 336.232 287.849C336.272 288.692 336.358 289.533 336.492 290.366Z" fill="#E0E0E0"/>
<path d="M315.824 322.746L317.813 350.438H353.181L355.17 322.746H315.824Z" fill="#EBEBEB"/>
<path d="M359.408 311.895H312.365V322.781H359.408V311.895Z" fill="#EBEBEB"/>
<path d="M312.365 349.309V352.348H314.614H358.629V349.309H312.365Z" fill="#E0E0E0"/>
<path d="M316.775 357.383L314.613 352H356.9L354.392 357.383H316.775Z" fill="#E0E0E0"/>
<path d="M354.479 331.774C354.479 331.774 354.479 331.861 354.306 332.034L353.787 332.729C353.355 333.423 352.663 334.291 351.798 335.42H351.539L346.523 328.389H346.782L341.853 335.42L341.68 335.68L341.507 335.507L335.627 328.389H335.973L335.627 328.823C333.811 331.08 331.995 333.337 330.352 335.507L330.179 335.68L330.006 335.42L324.991 328.389H325.25L319.197 335.42H318.937L317.035 332.121L316.516 331.253C316.47 331.173 316.441 331.084 316.43 330.993L316.603 331.253L317.122 332.121L319.197 335.246H318.937C320.58 333.423 322.569 330.993 324.991 328.128L325.164 327.954L325.337 328.128L330.352 335.246H330.006L335.281 328.649L335.627 328.215V328.041L335.8 328.215L341.767 335.246H341.421L346.437 328.128L346.609 327.954V328.128L351.625 335.246H351.452L353.527 332.642L354.133 332.034L354.479 331.774Z" fill="#F5F5F5"/>
<path d="M355.69 322.572C355.69 322.746 346.783 322.833 335.887 322.833C324.991 322.833 316.084 322.746 316.084 322.572C316.084 322.399 324.991 322.399 335.887 322.399C346.783 322.399 355.69 322.485 355.69 322.572Z" fill="#F5F5F5"/>
<path d="M154.116 34.8014C154.116 34.8882 154.029 34.8014 153.943 34.8014L153.337 34.541L151.176 33.6729L143.133 30.2006L116.845 18.7418L115.98 18.3078H116.153L90.3835 29.3325L82.6008 32.6312L80.4389 33.4993C80.0065 33.7597 79.7471 33.8465 79.7471 33.7597L80.4389 33.4125L82.5143 32.4576L90.297 29.072L115.98 17.8737H116.153L117.104 18.3078L143.306 29.8533L151.262 33.4993L153.424 34.4542L153.943 34.7146L154.116 34.8014Z" fill="#E0E0E0"/>
<path d="M195.192 31.0685H26.3057V158.009H195.192V31.0685Z" fill="#E0E0E0"/>
<path d="M189.916 36.9716H32.1855V152.792H189.916V36.9716Z" fill="#FAFAFA"/>
<path d="M67.0352 87.5811C67.0352 87.5811 67.1216 107.026 68.1593 112.929L92.4588 111.801C92.4588 111.801 90.297 92.7028 91.1617 87.5811H67.0352Z" fill="#E0E0E0"/>
<path d="M78.969 90.2721H80.3526C80.8944 90.3152 81.4229 90.4626 81.9092 90.7061C82.5368 91.0276 83.0951 91.47 83.5522 92.0082C84.0959 92.6959 84.48 93.4966 84.6764 94.3521C84.9297 95.3656 84.8383 96.4349 84.417 97.3904C84.2677 97.9024 84.0648 98.3971 83.8116 98.8661C83.4844 99.35 83.2226 99.8755 83.0334 100.429C82.5075 101.524 82.1573 102.696 81.9957 103.901H76.8936C76.7841 102.701 76.3993 101.542 75.7695 100.515L74.8182 99.1265C74.5588 98.6057 74.2129 98.1717 73.9535 97.7376C73.548 96.7797 73.4278 95.7243 73.6076 94.6993C73.7799 93.8393 74.1019 93.0165 74.5588 92.2687C74.9646 91.6919 75.4972 91.2167 76.1154 90.8797C76.5687 90.5973 77.0654 90.3919 77.5854 90.2721L78.6231 90.0984L77.6719 90.2721C77.1468 90.3755 76.6472 90.582 76.2018 90.8797C75.5837 91.2167 75.0511 91.6919 74.6453 92.2687C74.2025 93.0148 73.9087 93.8404 73.7805 94.6993C73.5987 95.6672 73.7196 96.6678 74.1264 97.564L74.9912 98.9529L75.9424 100.342C76.5851 101.394 76.9703 102.584 77.0666 103.814H81.8227C81.9839 102.581 82.3339 101.381 82.8604 100.255C83.0672 99.7369 83.3281 99.2422 83.6387 98.7793L84.3305 97.3036C84.6786 96.4252 84.782 95.4684 84.6297 94.5355C84.4774 93.6027 84.075 92.729 83.4657 92.0082C83.0086 91.47 82.4503 91.0276 81.8227 90.7061L80.3526 90.1853C80.0082 90.1408 79.6594 90.1408 79.3149 90.1853H78.969V90.2721Z" fill="white"/>
<path d="M80.1793 103.814V103.554C80.1048 103.268 80.0471 102.978 80.0064 102.686C79.9199 101.904 79.7469 100.863 79.6605 99.4738C79.5855 99.1026 79.5564 98.7236 79.574 98.3453V97.2168C79.5761 96.798 79.6645 96.3843 79.8334 96.0015C80.0304 95.5819 80.3667 95.2443 80.7847 95.0466C81.0027 94.959 81.2415 94.937 81.4718 94.9832C81.7021 95.0294 81.914 95.1419 82.0818 95.307C82.169 95.3995 82.2368 95.5086 82.2814 95.6279C82.326 95.7472 82.3463 95.8742 82.3412 96.0015C82.3349 96.2429 82.2759 96.4799 82.1683 96.6959L81.5629 97.13C81.3178 97.2551 81.0555 97.3429 80.7847 97.3904L79.3146 97.564H77.758L76.9797 97.3904L76.3744 96.9563C76.2084 96.754 76.0901 96.5166 76.0285 96.2619C76.0197 96.0272 76.0489 95.7927 76.115 95.5674C76.219 95.3362 76.4035 95.1509 76.6338 95.0466C76.8671 94.9866 77.1143 95.0176 77.3256 95.1334C77.4367 95.1671 77.5399 95.2229 77.629 95.2974C77.7182 95.372 77.7914 95.4638 77.8445 95.5674C77.9294 95.6435 77.9966 95.7373 78.0414 95.8423C78.0862 95.9473 78.1076 96.0609 78.1039 96.1751C78.1904 96.6091 78.1904 96.9563 78.2769 97.3904V99.6474C78.3633 101.036 78.3633 102.078 78.4498 102.859V103.988V103.727C78.4566 103.436 78.4275 103.144 78.3633 102.859C78.3633 102.078 78.2769 101.036 78.1904 99.6474C78.1039 98.2585 78.1039 98.1717 78.1039 97.3904C78.1039 96.6091 78.0174 96.6091 77.931 96.1751C77.9193 95.948 77.8273 95.7325 77.6715 95.5674L77.2392 95.1334H76.5474L76.115 95.5674C76.0072 95.782 75.9767 96.0273 76.0285 96.2619C76.0903 96.4908 76.2093 96.6999 76.3744 96.8695C76.5383 97.0538 76.7378 97.2026 76.9608 97.3071C77.1838 97.4115 77.4256 97.4694 77.6715 97.4772H79.2281L80.6982 97.3036L81.39 97.13C81.6294 97.006 81.8367 96.8277 81.9953 96.6091C82.0802 96.533 82.1474 96.4392 82.1922 96.3342C82.237 96.2292 82.2584 96.1156 82.2547 96.0015C82.2218 95.7799 82.1324 95.5706 81.9953 95.3938C81.8276 95.2288 81.6156 95.1163 81.3853 95.07C81.155 95.0238 80.9162 95.0458 80.6982 95.1334C80.3094 95.3002 79.9997 95.6112 79.8334 96.0015C79.6645 96.3843 79.5761 96.798 79.574 97.2168C79.5304 97.5917 79.5304 97.9704 79.574 98.3453V99.4738C79.7469 100.776 79.8334 101.904 80.0064 102.686C80.1793 103.467 80.0928 103.38 80.0928 103.554V103.727L80.1793 103.814Z" fill="white"/>
<path d="M76.9795 103.988C77.0463 104.243 77.0754 104.506 77.066 104.769C77.066 105.377 77.1524 106.071 77.1524 106.939L78.7955 108.849H80.525C80.8149 108.423 81.1326 108.017 81.4762 107.634L81.9086 107.113C81.9086 106.071 81.8221 105.03 81.8221 103.988V104.161H78.2766L81.8221 103.988H81.9951C81.9951 104.943 81.9951 106.071 82.0815 107.113H81.9951L81.5627 107.721L80.6114 108.849H78.536L76.9795 106.939V103.988Z" fill="white"/>
<path d="M81.9093 106.679H81.7364L81.2175 106.419C80.6521 106.27 80.0722 106.182 79.488 106.158C78.9214 106.217 78.3672 106.363 77.845 106.592L77.3262 106.766L77.7585 106.505C78.3148 106.289 78.8958 106.143 79.488 106.071C80.0813 106.076 80.6683 106.194 81.2175 106.419L81.7364 106.592L81.9093 106.679Z" fill="white"/>
<path d="M81.9093 105.985H81.7364L81.2175 105.811C80.6728 105.577 80.0773 105.487 79.488 105.55C78.9217 105.545 78.361 105.663 77.845 105.898L77.3262 106.071L77.7585 105.811C78.3078 105.586 78.8948 105.468 79.488 105.464C80.0755 105.444 80.6616 105.533 81.2175 105.724L81.7364 105.985H81.9093Z" fill="white"/>
<path d="M81.8229 105.203H81.6499L81.1311 104.943C80.5968 104.786 80.0446 104.698 79.488 104.682L77.7585 105.116L77.3262 105.29L77.7585 105.03L79.488 104.596C80.0813 104.6 80.6683 104.718 81.2176 104.943L81.6499 105.116L81.8229 105.203Z" fill="white"/>
<path d="M39.9688 55.809C39.9688 55.809 40.1417 75.2542 41.0929 81.1572L65.3924 80.0286C65.3924 80.0286 63.2306 60.8439 64.0953 55.809H39.9688Z" fill="#EBEBEB"/>
<path d="M60.3765 63.9691C60.3765 64.056 56.7445 64.4032 52.2478 64.6636C47.7511 64.924 44.1191 65.0108 44.1191 64.924C44.1191 64.8372 47.7511 64.49 52.2478 64.2296C56.7445 63.9691 60.3765 63.7955 60.3765 63.9691Z" fill="white"/>
<path d="M60.3765 68.0491C60.4629 68.2227 56.7445 68.4831 52.2478 68.7436C47.7511 69.004 44.1191 69.1776 44.1191 69.004C44.1191 68.8304 47.7511 68.5699 52.2478 68.3095C56.7445 68.0491 60.3765 67.9623 60.3765 68.0491Z" fill="white"/>
<path d="M56.3129 72.1291C54.772 72.4229 53.2109 72.597 51.6433 72.65C49.049 72.7368 46.9736 72.8236 46.9736 72.65C48.5145 72.3562 50.0757 72.182 51.6433 72.1291C54.1511 71.9555 56.3129 71.9555 56.3129 72.1291Z" fill="white"/>
<path d="M38.7578 112.929C38.7578 112.929 38.9308 132.374 39.9685 138.364L64.268 137.149C64.268 137.149 62.1061 118.051 62.8844 112.929H38.7578Z" fill="#EBEBEB"/>
<path d="M59.2524 121.176C59.2524 121.263 55.6205 121.61 51.1238 121.871C46.6271 122.131 42.9951 122.218 42.9951 122.131C42.9951 122.044 46.6271 121.697 51.1238 121.35C55.6205 121.002 59.2524 121.002 59.2524 121.176Z" fill="white"/>
<path d="M59.2524 125.256C59.2524 125.43 55.6205 125.69 51.1238 125.951C46.6271 126.211 42.9951 126.385 42.9951 126.211C42.9951 126.037 46.6271 125.777 51.1238 125.517C55.6205 125.256 59.2524 125.082 59.2524 125.256Z" fill="white"/>
<path d="M55.1015 129.336C53.5904 129.634 52.0576 129.809 50.5183 129.857C47.924 129.944 45.8486 130.031 45.8486 129.857C47.3895 129.563 48.9507 129.389 50.5183 129.336C53.0261 129.162 55.1015 129.162 55.1015 129.336Z" fill="white"/>
<path d="M105.171 60.9308L107.592 117.009L177.378 117.877L174.178 61.7121L105.171 60.9308Z" fill="#EBEBEB"/>
<path d="M173.659 60.4967H104.393V113.007H173.659V60.4967Z" fill="#F5F5F5"/>
<path d="M173.659 113.016V112.061C173.578 111.138 173.549 110.21 173.572 109.283V98.6058C173.486 89.4909 173.486 76.3828 173.486 60.4968L173.659 60.7572H104.392L104.565 60.4968V113.016L104.392 112.842H154.461L104.392 113.016H104.133V60.0627H173.832V60.2364C173.832 76.1224 173.745 89.3173 173.745 98.519C173.745 103.033 173.659 106.592 173.659 109.11V112.756V113.016Z" fill="#E0E0E0"/>
<path d="M140.885 71.6951H112.78V107.174H140.885V71.6951Z" fill="#F5F5F5"/>
<path d="M140.799 107.113V104.509C140.712 102.773 140.712 100.342 140.712 97.2168C140.712 90.9665 140.626 82.1121 140.626 71.6082L140.799 71.8686H112.694C112.694 71.9554 113.213 71.4346 112.954 71.6082V106.939L112.694 106.766H112.521V71.7818L112.694 71.6082H141.058V71.7818C140.972 82.3725 140.972 91.227 140.885 97.564V104.769C140.885 105.55 140.799 106.245 140.799 106.679V107.287V107.113Z" fill="#E0E0E0"/>
<path d="M167.606 63.535H113.818V68.6481H167.606V63.535Z" fill="#F5F5F5"/>
<path d="M167.606 68.6568V67.2678C167.606 66.3998 167.519 65.1844 167.519 63.5351H167.606L113.818 63.7087C114.25 63.1878 113.904 63.5351 114.077 63.4483V68.3964L113.818 68.1359H152.126L113.818 68.3096H113.559V63.101L113.818 62.8406L167.606 63.0142H167.692V66.8338C167.692 67.2678 167.606 67.5283 167.606 67.7887V68.6568Z" fill="#E0E0E0"/>
<path d="M167.606 71.6951H144.258V93.0761H167.606V71.6951Z" fill="#F5F5F5"/>
<path d="M167.606 93.05V91.4875C167.519 90.4457 167.519 88.97 167.519 87.0602C167.519 83.3274 167.433 78.0321 167.433 71.6082L167.606 71.8687H144.257L144.517 71.6082V82.7198C144.43 86.2789 144.43 89.7513 144.43 92.8764L144.257 92.616L161.12 92.7896H143.998V71.7819C143.825 72.0423 144.257 71.5214 144.257 71.6082H167.779V71.7819C167.779 78.2057 167.779 83.5878 167.692 87.4074V91.7479C167.692 92.1819 167.606 92.5292 167.606 92.7896V93.05Z" fill="#E0E0E0"/>
<path d="M167.606 96.3488H144.258V107.096H167.606V96.3488Z" fill="#F5F5F5"/>
<path d="M167.606 107.113V104.161C167.606 102.252 167.606 99.6474 167.52 96.3487L167.693 96.5223H144.344L144.604 96.2619V101.644C144.604 103.467 144.517 105.203 144.517 106.853L144.344 106.592L161.034 106.766H161.207L144.344 106.939H144.085V96.5223C143.999 96.6091 144.517 96.0882 144.344 96.3487H167.779V96.5223C167.779 99.821 167.693 102.512 167.693 104.422V106.592C167.652 106.764 167.623 106.938 167.606 107.113Z" fill="#E0E0E0"/>
<path d="M140.107 71.6951C131.459 83.7615 121.428 95.0467 112.694 107.113L140.107 71.6951Z" fill="white"/>
<path d="M112.694 107.113L112.954 106.766L113.646 105.637L116.499 101.731C118.921 98.519 122.38 94.0918 126.271 89.2305L136.043 76.9037L138.983 73.0841L139.848 72.0424L140.107 71.6951L139.848 72.1292L139.156 73.1709L136.302 77.0773C133.967 80.2892 130.508 84.7164 126.617 89.5777C122.725 94.439 119.266 98.7794 116.759 101.991L113.819 105.724C113.559 106.158 113.213 106.505 113.04 106.766C112.867 107.026 112.781 107.113 112.694 107.113Z" fill="#E0E0E0"/>
<path d="M140.799 107.113C140.712 107.2 134.313 99.3003 126.617 89.4909C118.92 79.6816 112.608 71.6952 112.694 71.6083C112.781 71.5215 119.18 79.4211 126.963 89.2305C134.745 99.0399 140.885 107.026 140.799 107.113Z" fill="#E0E0E0"/>
<path d="M107.592 71.6951C107.592 72.5707 107.333 73.4267 106.849 74.1547C106.364 74.8828 105.675 75.4502 104.869 75.7853C104.064 76.1204 103.177 76.2081 102.321 76.0372C101.466 75.8664 100.68 75.4448 100.063 74.8256C99.4464 74.2064 99.0264 73.4176 98.8562 72.5588C98.6861 71.7 98.7734 70.8098 99.1072 70.0008C99.441 69.1919 100.006 68.5004 100.732 68.0139C101.457 67.5275 102.309 67.2678 103.182 67.2678C104.351 67.2678 105.473 67.7343 106.3 68.5645C107.127 69.3948 107.592 70.5209 107.592 71.6951Z" fill="#E0E0E0"/>
<path d="M179.453 61.0176C179.453 61.8932 179.195 62.7492 178.71 63.4772C178.225 64.2053 177.537 64.7727 176.731 65.1078C175.925 65.4429 175.038 65.5306 174.183 65.3598C173.327 65.1889 172.541 64.7673 171.925 64.1481C171.308 63.529 170.888 62.7401 170.718 61.8813C170.547 61.0225 170.635 60.1323 170.969 59.3233C171.302 58.5144 171.868 57.8229 172.593 57.3365C173.318 56.85 174.171 56.5903 175.043 56.5903C176.213 56.5903 177.334 57.0568 178.162 57.887C178.989 58.7173 179.453 59.8434 179.453 61.0176Z" fill="#E0E0E0"/>
<path d="M351.279 91.748H300.691V165.414H351.279V91.748Z" fill="#E0E0E0"/>
<path d="M348.685 91.748H298.097V165.414H348.685V91.748Z" fill="#F5F5F5"/>
<path d="M342.458 99.7343H304.409V157.445H342.458V99.7343Z" fill="white"/>
<path d="M342.458 157.375V153.122C342.458 150.344 342.372 146.351 342.372 141.229C342.372 131.072 342.372 116.662 342.285 99.7343H304.582C304.496 121.437 304.496 141.576 304.496 157.375H304.323C304.323 141.576 304.323 121.437 304.236 99.7343V99.5607H342.545V141.316C342.545 146.437 342.458 150.431 342.458 153.208V157.375Z" fill="#E0E0E0"/>
<path d="M348.858 91.748C348.945 91.748 348.599 92.2688 347.993 93.0501L345.572 96.0884C344.621 97.2169 343.756 98.2586 343.064 98.9531L342.027 100.168C341.94 100.082 342.373 99.6476 342.978 98.8663L345.399 95.9148L347.82 92.9633L348.858 91.748Z" fill="#E0E0E0"/>
<path d="M342.632 157.202C344.534 160.221 346.767 163.016 349.29 165.535L342.632 157.202Z" fill="white"/>
<path d="M349.29 165.535C349.29 165.622 348.772 165.188 348.166 164.494C347.251 163.611 346.412 162.653 345.658 161.629C344.852 160.66 344.102 159.645 343.41 158.591C343.093 158.163 342.831 157.696 342.632 157.202C343.002 157.594 343.321 158.032 343.583 158.504C344.102 159.285 344.967 160.327 345.831 161.455L348.253 164.407L349.29 165.535Z" fill="#E0E0E0"/>
<path d="M298.097 165.362L304.755 157.115L298.097 165.362Z" fill="white"/>
<path d="M304.755 157.115C303.779 158.571 302.71 159.963 301.556 161.282C300.494 162.717 299.338 164.08 298.097 165.362C299.084 163.885 300.152 162.465 301.296 161.108C302.372 159.711 303.527 158.378 304.755 157.115Z" fill="#E0E0E0"/>
<path d="M298.097 91.748C299.279 92.9189 300.35 94.1976 301.296 95.5676C302.408 96.8475 303.42 98.2116 304.323 99.6476L301.123 95.7412C299.394 93.5709 298.097 91.748 298.097 91.748Z" fill="#E0E0E0"/>
<path d="M330.611 111.453H317.899V147.765H330.611V111.453Z" fill="#E0E0E0"/>
<path d="M339.596 13.5797L332.332 13.6179L332.521 49.8167L339.785 49.7785L339.596 13.5797Z" fill="#E0E0E0"/>
<path d="M288.404 13.5889L269.639 13.6875L269.743 33.6706L288.508 33.572L288.404 13.5889Z" fill="#EBEBEB"/>
<path d="M307.081 13.5775L288.316 13.6761L288.421 33.6592L307.186 33.5606L307.081 13.5775Z" fill="#F5F5F5"/>
<path d="M269.647 19.1758C282.099 19.2626 294.551 19.2626 307.09 19.0022C307.136 19.0022 307.18 18.9839 307.213 18.9514C307.245 18.9188 307.263 18.8746 307.263 18.8286C307.263 18.7825 307.245 18.7384 307.213 18.7058C307.18 18.6733 307.136 18.655 307.09 18.655C294.551 18.5682 282.099 18.5682 269.647 18.8286C269.601 18.8286 269.557 18.8469 269.524 18.8794C269.492 18.912 269.474 18.9562 269.474 19.0022C269.474 19.0483 269.492 19.0924 269.524 19.125C269.557 19.1575 269.601 19.1758 269.647 19.1758Z" fill="#E0E0E0"/>
<path d="M291.965 33.2755L257.895 33.4546L257.979 49.7397L292.05 49.5606L291.965 33.2755Z" fill="#EBEBEB"/>
<path d="M325.949 33.0969L291.878 33.276L291.963 49.5611L326.034 49.382L325.949 33.0969Z" fill="#F5F5F5"/>
<path d="M257.886 37.9265C280.542 38.1869 303.285 37.9265 325.941 37.5793C325.987 37.5793 326.031 37.561 326.064 37.5284C326.096 37.4959 326.114 37.4517 326.114 37.4057C326.114 37.3596 326.096 37.3155 326.064 37.2829C326.031 37.2503 325.987 37.232 325.941 37.232C303.285 37.0584 280.542 37.0584 257.886 37.5793C257.713 37.5793 257.713 37.9265 257.886 37.9265Z" fill="#E0E0E0"/>
<path d="M377.308 49.7325H245.174V55.5661H377.308V49.7325Z" fill="#E0E0E0"/>
<path d="M272.154 52.5103H266.793V72.4156H272.154V52.5103Z" fill="#E0E0E0"/>
<path d="M352.231 52.5103H346.869V72.4156H352.231V52.5103Z" fill="#E0E0E0"/>
<path d="M346.789 8.87729e-05L339.525 0.038269L339.785 49.8224L347.049 49.7842L346.789 8.87729e-05Z" fill="#EBEBEB"/>
<path d="M357.993 9.31609L346.751 9.37518L346.961 49.7233L358.203 49.6642L357.993 9.31609Z" fill="#F5F5F5"/>
<path d="M357.937 17.0056C354.193 17.2371 350.439 17.2371 346.695 17.0056C350.439 16.774 354.193 16.774 357.937 17.0056Z" fill="#E0E0E0"/>
<path d="M357.937 15.3563C354.193 15.5878 350.439 15.5878 346.695 15.3563C346.695 15.1827 349.203 15.0959 352.316 15.0959C355.429 15.0959 357.937 15.1827 357.937 15.3563Z" fill="#E0E0E0"/>
<path d="M357.937 43.4823C357.937 43.6559 355.429 43.7427 352.316 43.7427C349.203 43.7427 346.695 43.6559 346.695 43.4823C350.439 43.2507 354.193 43.2507 357.937 43.4823Z" fill="#E0E0E0"/>
<path d="M357.937 41.8329C354.193 42.0645 350.439 42.0645 346.695 41.8329C350.439 41.6014 354.193 41.6014 357.937 41.8329Z" fill="#E0E0E0"/>
<path d="M352.489 38.1001C352.403 38.1001 352.316 34.0201 352.316 29.072C352.316 24.1239 352.403 19.9571 352.489 19.9571C352.576 19.9571 352.662 24.0371 352.662 29.072C352.662 34.1069 352.576 38.1001 352.489 38.1001Z" fill="#E0E0E0"/>
<path d="M370.39 19.1758H358.11V49.6283H370.39V19.1758Z" fill="#EBEBEB"/>
<path d="M364.51 41.746C364.15 41.7462 363.794 41.6738 363.463 41.5332C363.132 41.3926 362.833 41.1865 362.583 40.9274C362.333 40.6682 362.137 40.3612 362.008 40.0247C361.878 39.6881 361.817 39.3288 361.829 38.9681C361.797 38.5682 361.867 38.1666 362.034 37.8018C362.2 37.437 362.457 37.1212 362.78 36.8847L363.04 37.3188C362.783 37.5067 362.577 37.756 362.442 38.0441C362.306 38.3322 362.244 38.6499 362.261 38.9681C362.261 39.5667 362.498 40.1408 362.92 40.5641C363.342 40.9874 363.913 41.2252 364.51 41.2252C365.106 41.2252 365.678 40.9874 366.1 40.5641C366.521 40.1408 366.758 39.5667 366.758 38.9681C366.776 38.6499 366.714 38.3322 366.578 38.0441C366.442 37.756 366.236 37.5067 365.98 37.3188L366.239 36.8847C366.578 37.1111 366.852 37.4224 367.034 37.7879C367.216 38.1533 367.3 38.5602 367.277 38.9681C367.289 39.3362 367.226 39.7028 367.091 40.0453C366.956 40.3878 366.753 40.6989 366.493 40.9593C366.234 41.2197 365.924 41.4239 365.583 41.5592C365.242 41.6945 364.876 41.7581 364.51 41.746Z" fill="#FAFAFA"/>
<path d="M366.585 36.1903L366.153 35.9298C366.601 35.3617 366.845 34.6581 366.845 33.9332C366.845 32.8047 366.412 32.3707 365.807 32.3707C365.202 32.3707 365.375 35.9298 363.299 35.9298C361.224 35.9298 361.829 35.2354 361.829 33.9332C361.803 33.2583 361.984 32.5917 362.348 32.0234L362.694 32.2839C362.408 32.7861 362.259 33.3549 362.262 33.9332C362.262 34.9749 362.694 35.409 363.213 35.409C363.732 35.409 363.732 31.8498 365.807 31.8498C367.883 31.8498 367.277 32.6311 367.277 34.02C367.272 34.7973 367.031 35.5544 366.585 36.1903Z" fill="#FAFAFA"/>
<path d="M366.585 31.2423L366.153 30.9818C366.601 30.4137 366.845 29.7101 366.845 28.9852C366.845 27.8567 366.412 27.4227 365.807 27.4227C365.202 27.4227 365.375 30.9818 363.299 30.9818C361.224 30.9818 361.829 30.2874 361.829 28.9852C361.803 28.3103 361.984 27.6437 362.348 27.0754L362.694 27.3359C362.408 27.8381 362.259 28.4069 362.262 28.9852C362.262 30.0269 362.694 30.461 363.213 30.461C363.732 30.461 363.732 26.9018 365.807 26.9018C367.883 26.9018 367.277 27.6831 367.277 29.072C367.272 29.8493 367.031 30.6064 366.585 31.2423Z" fill="#FAFAFA"/>
<path d="M342.978 10.5817C344.124 10.5817 345.053 9.64896 345.053 8.49833C345.053 7.34769 344.124 6.41492 342.978 6.41492C341.832 6.41492 340.902 7.34769 340.902 8.49833C340.902 9.64896 341.832 10.5817 342.978 10.5817Z" fill="#E0E0E0"/>
<path d="M343.582 14.2277H342.285V43.8468H343.582V14.2277Z" fill="#E0E0E0"/>
<path d="M392.44 358.771C392.44 358.945 308.905 359.032 205.914 359.032C102.922 359.032 19.3867 358.945 19.3867 358.771C19.3867 358.598 102.835 358.598 205.914 358.598C308.992 358.598 392.44 358.685 392.44 358.771Z" fill="#263238"/>
<path d="M120.389 60.3231C106.467 82.2857 107.418 112.669 122.551 133.676C132.669 147.739 147.802 157.115 159.908 169.528C172.015 181.942 181.095 200.172 174.696 216.232C168.296 232.291 149.272 239.323 135.09 249.653C119.437 261.085 108.809 278.163 105.439 297.298C102.068 316.432 106.218 336.134 117.017 352.261H264.457C264.457 352.261 290.313 302.78 257.02 265.018C223.727 227.256 205.827 226.649 207.124 201.908C208.421 177.168 225.629 169.094 235.488 159.806C245.346 150.517 293.426 128.902 265.062 60.3231H120.389Z" fill="#FAFAFA"/>
<path d="M120.39 60.3231H265.149C267.329 65.5243 269.177 70.8593 270.683 76.2959C272.267 82.0006 273.309 87.8428 273.796 93.7445C274.296 99.8652 273.976 106.026 272.845 112.061C271.638 118.354 269.387 124.399 266.187 129.944C264.603 132.806 262.749 135.509 260.652 138.017C258.586 140.611 256.331 143.048 253.907 145.309C251.451 147.668 248.852 149.871 246.124 151.906L237.996 157.983C236.612 159.025 235.315 160.24 234.018 161.368L230.04 164.754C227.273 166.924 224.506 169.094 221.911 171.525C216.723 176.213 212.226 182.029 209.805 188.887C208.627 192.341 207.872 195.927 207.556 199.564C207.47 200.519 207.297 201.387 207.297 202.342C207.297 203.297 207.211 204.165 207.297 205.033C207.294 206.897 207.468 208.758 207.816 210.589C208.541 214.254 210.045 217.718 212.226 220.746C214.469 223.781 217.052 226.548 219.922 228.992C225.457 234.114 231.424 239.062 237.131 244.358C242.838 249.653 248.373 255.209 253.734 261.025C256.434 263.922 258.975 266.965 261.344 270.14C263.714 273.396 265.797 276.852 267.57 280.47C271.067 287.867 273.205 295.836 273.883 303.995C274.587 312.237 274.121 320.538 272.499 328.649C271.646 332.725 270.578 336.753 269.3 340.715C268.036 344.733 266.475 348.65 264.63 352.434H116.844C109.954 341.993 105.736 330.007 104.565 317.537C103.304 305.517 105.058 293.372 109.667 282.206C113.94 271.544 120.597 262.01 129.124 254.341C133.22 250.651 137.682 247.393 142.441 244.618C147.024 241.667 151.694 239.062 156.017 236.198C160.39 233.408 164.424 230.116 168.037 226.388C171.469 222.704 174.013 218.279 175.474 213.454C176.75 208.757 176.957 203.832 176.08 199.043C175.194 194.419 173.65 189.946 171.496 185.762C169.424 181.745 166.931 177.962 164.059 174.477C161.285 171.116 158.28 167.954 155.066 165.014C148.84 159.285 142.441 154.25 136.733 149.042C133.88 146.524 131.112 143.833 128.605 141.229C126.161 138.616 123.907 135.831 121.86 132.895C118.2 127.507 115.372 121.596 113.472 115.36C111.776 109.959 110.816 104.352 110.618 98.6925C110.503 97.4228 110.474 96.1467 110.531 94.873C110.473 93.6861 110.501 92.4964 110.618 91.3138L110.877 87.8415C111.05 86.7129 111.223 85.6712 111.31 84.6295C112.284 78.2319 114.239 72.024 117.103 66.2261C117.492 65.3209 117.955 64.4498 118.487 63.6218L119.525 61.7988L120.39 60.3231L119.525 61.7988L118.487 63.6218C118.003 64.463 117.57 65.3327 117.19 66.2261C114.374 72.0365 112.45 78.2412 111.483 84.6295C111.31 85.6712 111.137 86.7998 111.05 87.8415L110.791 91.3138C110.674 92.4964 110.646 93.6861 110.704 94.873C110.647 96.1467 110.676 97.4228 110.791 98.6925C111.275 110.885 115.204 122.687 122.119 132.722C124.108 135.677 126.335 138.464 128.778 141.055C131.285 143.659 134.053 146.264 136.906 148.868C142.614 153.99 149.013 159.025 155.326 164.841C158.56 167.759 161.567 170.922 164.319 174.303C167.19 177.789 169.683 181.572 171.756 185.588C173.986 189.77 175.533 194.283 176.339 198.957C177.292 203.793 177.115 208.785 175.82 213.541C174.348 218.406 171.773 222.863 168.297 226.562C164.838 230.468 160.6 233.507 156.277 236.458C151.953 239.41 147.197 242.014 142.614 244.878C137.916 247.706 133.487 250.96 129.383 254.601C120.93 262.283 114.31 271.778 110.013 282.38C105.492 293.478 103.741 305.518 104.911 317.451C106.151 329.851 110.364 341.765 117.19 352.174H264.198C266.057 348.426 267.619 344.537 268.867 340.542C270.158 336.619 271.197 332.618 271.98 328.562C273.674 320.491 274.169 312.212 273.451 303.995C272.772 295.92 270.633 288.036 267.138 280.73C265.447 277.086 263.39 273.625 260.998 270.4C258.655 267.204 256.113 264.16 253.388 261.285C248.027 255.469 242.492 249.913 236.785 244.705C231.078 239.496 225.197 234.461 219.577 229.34C216.747 226.788 214.17 223.968 211.88 220.919C209.637 217.885 208.1 214.385 207.384 210.676C207.04 208.844 206.866 206.984 206.865 205.12C206.778 204.165 206.865 203.21 206.865 202.255L207.124 199.564C207.409 195.886 208.194 192.264 209.459 188.8C211.88 181.855 216.377 175.952 221.652 171.178C224.246 168.747 227.013 166.577 229.781 164.407L233.758 161.108C235.023 159.908 236.351 158.778 237.736 157.722L245.951 151.559C248.632 149.476 251.226 147.305 253.648 145.048C256.028 142.775 258.28 140.369 260.393 137.843C262.394 135.264 264.242 132.568 265.927 129.77C269.062 124.265 271.282 118.283 272.499 112.061C273.63 106.026 273.95 99.8652 273.451 93.7445C272.956 87.8722 271.913 82.0596 270.337 76.3827C268.86 70.9479 267.041 65.6129 264.889 60.4099H120.39V60.3231Z" fill="#263238"/>
<path d="M259.182 100.515C280.887 104.161 246.643 142.705 227.273 157.983C216.031 166.751 204.011 176.299 198.65 189.581C192.596 204.599 197.093 221.527 194.153 236.718C193.72 239.236 190.002 238.802 190.002 236.284C190.175 226.301 189.916 216.405 188.272 206.596C185.938 192.706 180.663 178.991 170.977 168.834C163.022 160.5 152.645 155.031 144.257 147.219C131.891 135.933 119.265 121.35 118.055 104.595C118.055 104.595 141.662 85.4976 154.807 87.9282C170.113 90.7061 185.246 114.492 209.027 111.714C225.63 109.804 234.018 96.3486 259.182 100.515Z" fill="#4B0082"/>
<path d="M261.085 307.12C260.566 301.651 259.096 295.488 254.253 292.884C251.313 291.321 247.768 291.495 244.568 292.363C241.368 293.231 238.428 294.707 235.229 295.661C228.921 297.46 222.213 297.248 216.031 295.054C210.151 292.884 205.135 288.89 199.687 285.852C194.239 282.814 187.754 280.47 181.701 281.946C171.237 284.55 165.703 297.311 155.326 300.349C150.742 301.738 145.813 300.957 141.144 299.828C136.474 298.7 131.718 297.398 126.875 297.571C122.033 297.745 119.179 299.047 116.585 301.651H116.498C116.057 302.056 115.679 302.524 115.374 303.04C112.088 307.294 111.569 313.11 112.607 318.405C113.645 323.701 116.412 329.69 119.352 334.899C122.292 340.107 126.789 347.226 132.496 351.306C139.587 356.341 148.494 352.868 157.142 353.563C177.29 355.125 198.996 356.254 219.144 354.691C229.867 353.823 239.812 354.952 248.286 348.441C254.253 343.84 258.145 336.809 259.961 329.517C261.777 322.225 261.863 314.586 261.085 307.12Z" fill="#4B0082"/>
<g opacity="0.24">
<path opacity="0.24" d="M223.035 296.703C221.824 298.439 221.392 300.783 222.516 302.519C223.64 304.256 225.024 305.905 225.543 307.988C226.062 310.072 224.332 314.325 222.948 317.277C220.292 322.555 219.297 328.519 220.095 334.378C220.892 340.267 223.929 345.618 228.569 349.309C230.558 350.959 233.239 352.174 235.747 351.393C238.255 350.611 239.552 348.268 239.984 345.837C240.416 343.406 240.071 340.976 239.811 338.545C238.412 327.28 238.703 315.868 240.676 304.69C240.935 302.78 241.281 300.61 240.071 299.134C239.27 298.248 238.211 297.64 237.044 297.398C232.547 295.922 227.618 297.571 223.035 296.703Z" fill="black"/>
</g>
<path d="M106.208 359.032C106.208 359.032 105.862 352.261 114.682 348.441H269.646C269.646 348.441 277.775 352.521 278.726 358.858L106.208 359.032Z" fill="#FFBF00"/>
<path d="M266.359 61.1911H266.1L120.389 60.2362L119.092 59.3681C118.16 58.6593 117.475 57.6724 117.137 56.5489C116.798 55.4254 116.822 54.2231 117.207 53.1145C117.591 52.0058 118.315 51.0478 119.275 50.3778C120.235 49.7078 121.382 49.3603 122.551 49.3851L264.024 50.6004C269.818 50.6873 271.634 58.6737 266.359 61.1911Z" fill="#FFBF00"/>
<g opacity="0.24">
<path opacity="0.24" d="M243.011 117.009C243.357 117.53 242.233 118.745 240.157 120.655C238.082 122.565 234.969 125.082 231.077 128.207C226.46 132.025 221.576 135.506 216.463 138.624C213.238 140.466 209.851 142.006 206.346 143.225C204.448 143.889 202.514 144.44 200.552 144.875C198.503 145.316 196.42 145.578 194.325 145.656C190.072 145.921 185.809 145.331 181.787 143.92C178.202 142.673 174.799 140.951 171.669 138.798C168.729 136.801 166.221 134.892 163.886 133.069C161.551 131.246 159.39 129.51 157.487 127.86C149.791 121.176 145.813 116.315 146.591 115.36C147.369 114.405 152.817 117.443 161.206 122.652L168.124 126.905L175.993 131.68C178.657 133.286 181.502 134.568 184.467 135.499C187.513 136.454 190.709 136.837 193.893 136.628C200.552 136.281 206.951 133.937 212.572 131.246C218.193 128.555 223.208 125.343 227.532 122.912C230.986 120.855 234.601 119.084 238.341 117.617C241.109 116.662 242.752 116.488 243.011 117.009Z" fill="black"/>
</g>
<path d="M190.175 254.861C190.57 254.765 190.982 254.764 191.377 254.857C191.772 254.95 192.14 255.135 192.452 255.396C192.763 255.658 193.009 255.99 193.169 256.364C193.329 256.739 193.4 257.146 193.375 257.552C193.316 257.993 193.141 258.411 192.869 258.762C192.597 259.113 192.237 259.385 191.826 259.551C191.415 259.718 190.967 259.771 190.528 259.707C190.09 259.643 189.676 259.464 189.329 259.187C188.982 258.91 188.715 258.546 188.553 258.131C188.392 257.717 188.343 257.267 188.412 256.827C188.48 256.388 188.664 255.974 188.943 255.629C189.222 255.284 189.588 255.019 190.002 254.861" fill="#4B0082"/>
<path d="M138.031 141.229L137.512 140.708L136.042 139.145C135.523 138.451 134.745 137.67 133.88 136.628L131.113 133.156C130.248 131.853 129.124 130.465 128.086 128.815L126.53 126.298C126.212 125.884 125.923 125.449 125.665 124.996L124.887 123.607C122.625 119.478 120.827 115.111 119.525 110.585C118.259 106.063 117.59 101.393 117.536 96.6959C117.536 95.5674 117.536 94.5257 117.623 93.484V92.0082C117.723 91.5223 117.78 91.0285 117.796 90.5325C117.863 89.6011 117.978 88.6739 118.141 87.7546C118.314 86.8865 118.401 86.0184 118.574 85.2372C118.747 84.4559 119.266 82.1989 119.525 80.9835L120.044 79.1605C120.217 78.6397 120.303 78.2057 120.476 77.7716C120.649 77.3376 120.995 76.2959 121.168 75.775L121.428 75.0805L121.255 75.775L120.649 77.7716C120.545 78.2745 120.401 78.768 120.217 79.2474C120.044 79.7682 119.957 80.3759 119.784 80.9835C119.421 82.4143 119.133 83.8631 118.92 85.324C118.726 86.1539 118.582 86.9945 118.487 87.8414C118.314 88.7095 118.314 89.6644 118.141 90.6193C117.969 91.5742 118.055 91.5742 118.055 92.0082C117.983 92.5258 117.954 93.0484 117.969 93.5708C117.969 94.5257 117.882 95.5674 117.882 96.6959C118.017 101.364 118.714 105.998 119.957 110.498C121.231 114.966 123.001 119.275 125.232 123.346L126.011 124.735L126.789 126.124C127.369 126.923 127.89 127.765 128.346 128.642L131.372 132.982L134.053 136.454L136.215 139.059L137.598 140.621L138.031 141.229Z" fill="#263238"/>
<path d="M129.815 270.14L129.988 269.879L130.507 269.098C130.755 268.638 131.044 268.202 131.372 267.796L131.891 266.928L132.583 266.06L134.312 263.976C134.917 263.195 135.696 262.501 136.474 261.633C138.341 259.84 140.335 258.186 142.441 256.684C147.024 253.125 152.991 249.653 159.39 245.66C162.752 243.57 165.986 241.28 169.075 238.802C172.394 236.119 175.332 232.994 177.809 229.513C182.277 222.574 184.705 214.51 184.814 206.249C184.968 199.502 183.853 192.787 181.528 186.456C180.007 182.18 178.096 178.053 175.82 174.129L173.918 170.917L173.399 170.136L173.226 169.789L173.399 170.136L174.004 170.917L175.993 174.043C178.338 177.955 180.307 182.083 181.873 186.369C184.196 192.734 185.339 199.471 185.246 206.249C185.228 208.195 185.083 210.138 184.814 212.065C184.506 214.086 184.072 216.087 183.516 218.055C182.395 222.234 180.582 226.196 178.155 229.774C175.648 233.283 172.681 236.436 169.335 239.149C166.202 241.608 162.94 243.898 159.563 246.007C153.164 250 147.197 253.473 142.614 256.858C140.365 258.594 138.376 260.244 136.647 261.806L134.485 264.063L132.756 266.147L131.977 267.015L131.458 267.796L130.594 269.098L129.988 269.879L129.815 270.14Z" fill="#263238"/>
<path d="M121.773 285.505L121.6 285.939L120.995 286.981C120.642 287.569 120.325 288.178 120.044 288.804C119.698 289.498 119.265 290.279 118.92 291.147C118.574 292.016 118.487 292.102 118.228 292.623L117.709 294.186C117.27 295.321 116.895 296.481 116.585 297.658C115.86 300.364 115.339 303.121 115.028 305.905C114.812 308.708 114.812 311.523 115.028 314.325C115.201 315.628 115.288 316.843 115.547 317.971L115.806 319.621C115.893 320.142 116.066 320.662 116.152 321.096C116.321 321.98 116.552 322.85 116.844 323.701C117.017 324.395 117.277 325.09 117.449 325.611C117.622 326.131 117.709 326.479 117.795 326.739C117.877 326.873 117.936 327.02 117.968 327.173L117.795 326.826C117.591 326.435 117.418 326.029 117.277 325.611C117.004 324.99 116.773 324.352 116.585 323.701C116.325 323.006 116.066 322.138 115.806 321.183C115.547 320.228 115.547 320.228 115.461 319.708C115.387 319.15 115.271 318.598 115.115 318.058C114.942 316.93 114.769 315.628 114.596 314.325C114.38 311.523 114.38 308.708 114.596 305.905C114.858 303.085 115.379 300.295 116.152 297.571C116.585 296.269 116.931 295.054 117.363 294.012C117.527 293.477 117.729 292.955 117.968 292.45C118.141 291.929 118.401 291.495 118.574 291.061C118.747 290.627 119.438 289.324 119.784 288.63C120.092 288.029 120.438 287.449 120.822 286.894C121.082 286.567 121.314 286.219 121.514 285.852L121.773 285.505Z" fill="#263238"/>
<path d="M228.656 306.339L228.483 306.512L227.964 306.86L225.889 308.075L224.332 309.03L222.43 309.985C221.133 310.592 219.576 311.461 217.847 312.155L215.079 313.284L211.966 314.325C209.891 315.107 207.556 315.627 205.135 316.322C199.788 317.497 194.347 318.194 188.877 318.405C183.434 318.465 177.995 318.059 172.62 317.19C170.259 316.762 167.921 316.211 165.616 315.541L162.502 314.672L159.735 313.631C158.107 313.108 156.518 312.469 154.979 311.721L152.99 310.853L151.434 310.072L149.272 308.943L148.753 308.596L149.358 308.856L151.52 309.898L153.077 310.679L155.066 311.547C156.449 312.068 158.006 312.849 159.822 313.37L162.589 314.325L165.702 315.193C167.864 315.801 170.199 316.235 172.62 316.756C177.995 317.621 183.434 318.028 188.877 317.971C194.315 317.718 199.723 317.021 205.048 315.888C207.359 315.377 209.639 314.74 211.88 313.978C212.906 313.683 213.916 313.336 214.906 312.936L217.674 311.808C219.28 311.231 220.841 310.535 222.343 309.724L224.246 308.856L225.802 307.988L227.878 306.773L228.483 306.426L228.656 306.339Z" fill="#263238"/>
<path d="M237.736 122.652L237.476 122.825L236.958 123.259L234.709 125.082C232.807 126.558 230.04 128.815 226.494 131.419C222.435 134.583 218.158 137.455 213.696 140.013C211.01 141.459 208.238 142.734 205.394 143.833C202.296 144.933 199.07 145.634 195.795 145.916C189.453 146.324 183.119 145.004 177.463 142.097C174.996 140.86 172.626 139.438 170.372 137.843C168.21 136.367 166.307 134.892 164.578 133.503C161.205 130.812 158.525 128.468 156.622 126.818L154.46 124.996L153.942 124.475L153.769 124.301L153.942 124.475L154.547 124.909L156.709 126.732L164.751 133.329L170.545 137.583C172.833 139.098 175.2 140.489 177.636 141.75C183.271 144.535 189.524 145.82 195.795 145.482C199.014 145.2 202.182 144.5 205.221 143.399C208.059 142.354 210.807 141.076 213.436 139.579C217.919 137.074 222.224 134.26 226.321 131.159L234.623 124.909L236.871 123.259L237.476 122.825L237.736 122.652Z" fill="#263238"/>
<g opacity="0.24">
<path opacity="0.24" d="M159.735 313.631C163.8 310.506 169.594 311.287 174.609 312.329C179.625 313.37 184.813 315.107 189.915 314.412C195.017 313.718 197.352 311.981 201.157 311.113C204.962 310.245 209.545 310.94 211.707 314.238C194.78 319.725 176.531 319.512 159.735 313.631Z" fill="black"/>
</g>
<path d="M302.68 290.106L284.088 269.185L283.915 294.62L289.536 310.94L233.76 320.662L231.425 276.563L227.447 242.621C227.193 240.606 227.616 238.564 228.65 236.818C229.684 235.073 231.27 233.724 233.154 232.985L248.46 226.909L270.079 230.902L278.813 234.201C282.443 235.597 285.679 237.861 288.239 240.798L314.354 270.834" fill="#20D08F"/>
<path d="M282.79 264.15C282.79 264.063 284.001 264.237 285.903 263.976C288.423 263.558 290.767 262.412 292.648 260.678C294.495 258.954 295.789 256.718 296.367 254.254C296.611 253.225 296.784 252.181 296.885 251.129C296.946 251.414 296.975 251.705 296.972 251.997C296.949 252.784 296.862 253.568 296.713 254.34C296.16 256.909 294.831 259.243 292.908 261.025C290.996 262.8 288.575 263.924 285.99 264.237C285.221 264.389 284.433 264.418 283.655 264.323C283.049 264.237 282.79 264.237 282.79 264.15Z" fill="white"/>
<path d="M284.434 293.578C284.52 293.578 284.606 284.724 284.52 273.872C284.434 263.021 284.261 254.167 284.088 254.167C283.915 254.167 283.915 263.021 284.001 273.872C284.088 284.724 284.261 293.578 284.434 293.578Z" fill="#263238"/>
<path d="M282.358 300.002L248.719 286.373C247.384 285.855 246.221 284.969 245.364 283.818C244.508 282.666 243.992 281.295 243.877 279.862L241.455 247.396C241.455 247.396 241.715 233.68 233.154 232.986L228.311 234.895C221.999 238.281 220.442 247.483 221.307 254.601C222.517 264.671 223.036 278.994 224.333 287.762C225.458 294.967 229.608 301.304 236.613 303.127L278.034 312.155L282.358 300.002Z" fill="#20D08F"/>
<path d="M241.888 252.344C241.974 252.344 241.974 252.604 242.061 253.125C242.147 253.646 242.147 254.34 242.234 255.295C242.32 256.25 242.666 259.809 242.925 263.108C243.185 266.407 243.617 270.4 243.963 274.74L244.223 278.126C244.281 279.293 244.426 280.453 244.655 281.598C244.878 282.776 245.487 283.846 246.384 284.637C247.292 285.422 248.312 286.066 249.411 286.546C258.75 290.626 267.311 293.925 273.538 296.269L280.888 298.96L282.877 299.741L283.569 300.002L282.877 299.828L280.802 299.134L273.365 296.616C267.138 294.272 258.577 291.06 249.238 286.98C248.076 286.483 246.997 285.81 246.038 284.984C245.109 284.098 244.475 282.946 244.223 281.685C243.999 280.539 243.854 279.379 243.79 278.213C243.732 276.997 243.646 275.869 243.531 274.827C243.185 270.4 242.925 266.494 242.666 263.108C242.407 259.723 242.234 257.205 242.061 255.295C241.888 253.385 241.974 253.646 241.974 253.125C241.926 252.867 241.898 252.606 241.888 252.344Z" fill="#263238"/>
<path d="M222.604 269.966C222.69 269.966 222.69 270.14 222.69 270.4L222.863 271.702C222.949 272.831 223.036 274.393 223.209 276.303C223.382 278.213 223.641 280.557 223.987 283.074C224.332 285.818 224.823 288.542 225.457 291.234C225.846 292.626 226.398 293.966 227.1 295.227C227.848 296.335 228.719 297.354 229.694 298.266C231.239 299.92 233.052 301.3 235.056 302.346C236.892 303.318 238.881 303.964 240.936 304.255C240.936 304.342 240.763 304.342 240.504 304.255C240.093 304.267 239.684 304.208 239.293 304.082C237.757 303.818 236.27 303.321 234.883 302.606C232.838 301.58 230.97 300.232 229.349 298.613C228.396 297.617 227.528 296.543 226.754 295.401C225.988 294.161 225.405 292.816 225.025 291.408C224.356 288.694 223.865 285.939 223.555 283.161C223.209 280.557 223.036 278.213 222.863 276.303C222.69 274.393 222.69 272.744 222.604 271.702V269.966Z" fill="#263238"/>
<path d="M237.045 292.623C236.958 292.623 237.131 291.929 237.65 290.887C238.342 289.488 239.313 288.247 240.504 287.241C241.66 286.221 243.015 285.453 244.482 284.984C245.097 284.783 245.737 284.666 246.384 284.637L244.568 285.331C243.172 285.843 241.883 286.608 240.763 287.588C239.656 288.575 238.695 289.715 237.909 290.974C237.391 292.015 237.131 292.71 237.045 292.623Z" fill="#263238"/>
<path d="M243.617 268.056H243.877L244.482 268.317C245.255 268.739 246.066 269.087 246.903 269.358C250.65 270.692 254.726 270.78 258.526 269.607C262.326 268.434 265.649 266.064 268.003 262.848C269.748 260.653 270.828 258.002 271.116 255.209C271.279 253.747 271.132 252.268 270.684 250.868C270.178 249.451 269.349 248.173 268.263 247.135C267.169 246.096 265.777 245.427 264.285 245.226C263.58 245.095 262.854 245.128 262.165 245.324C261.475 245.52 260.839 245.872 260.307 246.354C259.826 246.84 259.547 247.492 259.529 248.177C259.547 248.846 259.791 249.489 260.22 250C261.077 251.01 262.281 251.661 263.593 251.823C266.1 252.132 268.643 251.741 270.943 250.695C273.006 249.867 274.822 248.522 276.218 246.788C277.384 245.394 278.239 243.766 278.726 242.014C279.156 240.698 279.361 239.318 279.331 237.934C279.379 237.062 279.321 236.187 279.158 235.329C279.158 235.069 279.072 234.895 279.072 234.722C279.072 234.548 278.986 234.461 279.072 234.461C279.403 235.589 279.578 236.758 279.591 237.934C279.578 239.344 279.375 240.746 278.986 242.1C278.485 243.901 277.633 245.583 276.478 247.049C275.03 248.786 273.193 250.155 271.116 251.042C268.779 252.169 266.157 252.563 263.593 252.17C262.875 252.128 262.174 251.936 261.534 251.608C260.894 251.279 260.329 250.82 259.874 250.26C259.405 249.664 259.133 248.936 259.096 248.177C259.117 247.356 259.459 246.577 260.047 246.007C260.631 245.492 261.323 245.116 262.072 244.905C262.82 244.695 263.606 244.656 264.371 244.792C265.929 245.005 267.38 245.704 268.522 246.788C269.694 247.856 270.586 249.198 271.116 250.695C271.559 252.155 271.706 253.69 271.549 255.209C271.251 258.093 270.141 260.833 268.349 263.108C265.455 267.049 261.142 269.697 256.329 270.487C253.13 271.023 249.847 270.693 246.817 269.532C245.689 269.185 244.613 268.689 243.617 268.056Z" fill="white"/>
<path d="M221.566 259.375L222.172 258.681C222.706 258.082 223.316 257.557 223.988 257.118C226.203 255.611 228.76 254.686 231.425 254.427C232.895 254.265 234.382 254.323 235.835 254.601C236.991 254.911 238.119 255.318 239.207 255.816L241.283 257.118L241.888 257.639C241.888 257.726 240.85 256.945 239.034 256.077C236.675 255.019 234.082 254.6 231.511 254.861C228.897 255.105 226.378 255.968 224.161 257.379C222.518 258.507 221.653 259.462 221.566 259.375Z" fill="white"/>
<path d="M227.014 236.197C227.831 236.961 228.73 237.63 229.694 238.194C230.776 238.747 231.948 239.1 233.153 239.236C234.638 239.424 236.146 239.219 237.526 238.64C238.907 238.061 240.113 237.129 241.023 235.937C241.776 235.004 242.361 233.947 242.752 232.812C243.055 231.707 243.229 230.571 243.271 229.426C243.335 229.741 243.364 230.061 243.357 230.381C243.423 231.229 243.336 232.082 243.098 232.899C242.712 234.089 242.127 235.204 241.369 236.197C240.394 237.421 239.151 238.401 237.737 239.062C236.281 239.637 234.708 239.845 233.153 239.67C231.9 239.519 230.692 239.105 229.608 238.454C228.852 238.061 228.153 237.564 227.533 236.979C227.335 236.735 227.162 236.474 227.014 236.197Z" fill="white"/>
<path d="M256.329 289.498C256.335 289.293 256.364 289.089 256.416 288.89C256.509 288.252 256.714 287.634 257.021 287.067C258.144 285.083 259.916 283.55 262.036 282.727C265.174 281.423 268.674 281.3 271.895 282.38C273.711 282.901 275.786 283.508 277.083 285.244C277.436 285.693 277.655 286.232 277.717 286.8C277.778 287.369 277.678 287.942 277.429 288.456C276.926 289.451 276.104 290.247 275.094 290.713C274.101 291.216 273.007 291.484 271.895 291.495C270.775 291.578 269.664 291.237 268.782 290.54C268.386 290.192 268.066 289.765 267.843 289.287C267.62 288.809 267.498 288.29 267.484 287.762C267.403 286.786 267.551 285.805 267.917 284.897C268.545 283.311 269.48 281.866 270.667 280.644C271.854 279.422 273.271 278.448 274.835 277.779C276.938 276.892 279.217 276.506 281.493 276.65C282.319 276.725 283.132 276.9 283.915 277.171C283.828 277.258 283.05 276.911 281.493 276.824C279.257 276.7 277.025 277.148 275.008 278.126C273.598 278.727 272.309 279.58 271.203 280.644C269.936 281.872 268.935 283.349 268.263 284.984C267.972 285.879 267.854 286.822 267.917 287.762C267.917 288.234 268.026 288.699 268.236 289.121C268.446 289.543 268.752 289.91 269.127 290.193C269.9 290.837 270.894 291.149 271.895 291.061C272.912 291.038 273.914 290.802 274.835 290.366C275.773 289.91 276.555 289.185 277.083 288.283C277.285 287.832 277.359 287.335 277.298 286.845C277.237 286.355 277.043 285.891 276.737 285.505C276.129 284.762 275.36 284.169 274.489 283.769C273.626 283.347 272.729 282.998 271.808 282.727C268.644 281.706 265.228 281.798 262.123 282.987C260.036 283.778 258.271 285.244 257.107 287.154C256.766 287.906 256.506 288.691 256.329 289.498Z" fill="white"/>
<path d="M233.932 301.651C233.932 301.564 235.229 301.478 237.131 300.783C239.675 299.892 241.956 298.377 243.769 296.376C245.581 294.375 246.866 291.951 247.508 289.324C247.941 287.328 247.941 286.026 248.027 286.026C248.088 286.311 248.117 286.602 248.114 286.894C248.055 287.74 247.94 288.581 247.768 289.411C247.206 292.116 245.954 294.629 244.136 296.703C242.247 298.751 239.864 300.276 237.218 301.13L234.796 301.651C234.278 301.738 233.932 301.738 233.932 301.651Z" fill="white"/>
<path d="M223.036 276.477L223.382 276.303L224.593 275.956C226.085 275.552 227.635 275.405 229.176 275.522C230.248 275.617 231.298 275.881 232.289 276.303C233.46 276.766 234.478 277.547 235.229 278.56C236.04 279.727 236.436 281.133 236.353 282.553C236.294 283.294 236.056 284.009 235.661 284.637C235.278 285.319 234.665 285.842 233.932 286.113C233.552 286.24 233.145 286.267 232.751 286.191C232.357 286.115 231.99 285.939 231.684 285.679C231.422 285.401 231.218 285.074 231.085 284.716C230.951 284.358 230.89 283.977 230.905 283.595C230.802 282.19 231.07 280.782 231.684 279.515C232.142 278.451 232.806 277.489 233.637 276.684C234.469 275.88 235.45 275.249 236.526 274.827C238 274.331 239.569 274.183 241.109 274.393C241.525 274.461 241.932 274.578 242.32 274.741L242.752 274.914L241.109 274.567C239.612 274.423 238.102 274.631 236.699 275.175C234.623 276.022 232.952 277.638 232.03 279.689C231.503 280.889 231.266 282.198 231.338 283.508C231.301 284.171 231.517 284.823 231.943 285.331C232.191 285.539 232.488 285.68 232.806 285.741C233.124 285.802 233.452 285.78 233.759 285.679C234.092 285.577 234.402 285.41 234.669 285.186C234.937 284.963 235.156 284.687 235.316 284.376C235.657 283.793 235.864 283.141 235.921 282.467C235.977 281.171 235.613 279.891 234.883 278.821C234.181 277.887 233.26 277.142 232.202 276.65C231.238 276.239 230.218 275.976 229.176 275.869C227.672 275.754 226.16 275.841 224.679 276.13C223.555 276.39 223.036 276.564 223.036 276.477Z" fill="white"/>
<g opacity="0.3">
<path opacity="0.3" d="M272.673 296.182C269.137 294.198 265.5 292.402 261.777 290.8C258.058 289.064 254.34 286.894 251.919 283.595C247.249 277.258 247.768 268.23 243.012 261.98C243.358 266.146 243.617 270.313 243.963 274.48C244.309 278.647 243.617 282.119 246.125 284.724C248.633 287.328 252.178 288.63 255.032 289.498C260.826 291.408 266.965 294.272 272.673 296.182Z" fill="black"/>
</g>
<path d="M331.216 343.754C331.216 343.754 359.32 351.566 360.445 352C361.569 352.434 361.915 358.858 359.234 358.771C358.023 358.685 337.615 359.466 335.021 359.292C332.427 359.119 324.73 356.08 324.73 356.08L331.216 343.754Z" fill="#E12E5E"/>
<path d="M342.891 354.518C343.064 354.605 343.237 353.042 344.188 351.479C345.14 349.917 346.264 349.049 346.177 348.875C345.111 349.375 344.254 350.235 343.756 351.306C343.148 352.263 342.846 353.384 342.891 354.518Z" fill="#263238"/>
<path d="M339.95 353.216C340.123 353.216 340.383 351.914 341.161 350.438C341.939 348.962 342.804 347.92 342.717 347.833C341.823 348.383 341.126 349.204 340.729 350.177C340.212 351.106 339.944 352.152 339.95 353.216Z" fill="#263238"/>
<path d="M337.183 352.434C337.356 352.434 337.27 351.045 337.875 349.483C338.309 348.567 338.83 347.694 339.431 346.878C339.345 346.705 338.134 347.573 337.442 349.309C336.971 350.282 336.879 351.397 337.183 352.434Z" fill="#263238"/>
<path d="M337.702 348.788C337.789 348.875 338.048 348.007 338.048 346.705C338.048 345.939 337.931 345.178 337.702 344.448C337.618 343.978 337.502 343.514 337.357 343.059C337.236 342.817 337.058 342.608 336.838 342.451C336.709 342.329 336.539 342.261 336.362 342.261C336.185 342.261 336.015 342.329 335.886 342.451C335.777 342.55 335.69 342.67 335.63 342.805C335.57 342.939 335.54 343.085 335.541 343.233C335.541 343.493 335.454 343.753 335.454 344.014C335.454 344.274 335.541 344.969 335.627 345.403C335.87 346.144 336.159 346.868 336.492 347.573C336.812 348.203 337.253 348.763 337.789 349.222C337.875 349.222 337.357 348.528 336.838 347.399C336.513 346.731 336.252 346.034 336.059 345.316C335.988 344.886 335.959 344.45 335.973 344.014C335.915 343.591 336.007 343.161 336.232 342.798C336.28 342.756 336.342 342.732 336.405 342.732C336.469 342.732 336.531 342.756 336.578 342.798C336.669 342.857 336.746 342.933 336.805 343.023C336.865 343.112 336.905 343.213 336.924 343.319C337.097 343.667 337.184 344.101 337.357 344.535C337.53 344.969 337.616 346.097 337.702 346.705C337.789 347.313 337.616 348.788 337.702 348.788Z" fill="#263238"/>
<path d="M337.702 348.528C337.115 348.342 336.502 348.254 335.886 348.267C335.213 348.23 334.539 348.318 333.897 348.528L332.687 348.875C332.341 349.136 331.908 349.656 332.081 350.177C332.14 350.431 332.268 350.663 332.451 350.848C332.635 351.032 332.866 351.16 333.119 351.219H334.33C335 351.017 335.64 350.725 336.232 350.351L337.529 349.049C337.443 348.962 336.924 349.396 335.973 350.004C335.457 350.382 334.868 350.648 334.243 350.785H333.206C333.038 350.743 332.886 350.656 332.764 350.534C332.642 350.411 332.556 350.258 332.514 350.09C332.498 349.931 332.53 349.771 332.608 349.632C332.685 349.492 332.803 349.379 332.946 349.309L333.984 348.875L335.886 348.615C336.493 348.62 337.099 348.591 337.702 348.528Z" fill="#263238"/>
<path d="M347.215 354.865C347.388 354.865 347.215 353.65 347.82 352.347C348.196 351.546 348.66 350.789 349.204 350.09C349.117 350.004 347.993 350.611 347.388 352.087C346.975 352.956 346.913 353.951 347.215 354.865Z" fill="#263238"/>
<path d="M327.585 356.167L328.709 356.688L331.822 357.643C335.343 358.412 338.942 358.762 342.545 358.684L353.355 358.337L356.641 358.164L357.851 357.99H353.355L342.545 358.164C338.978 358.284 335.409 357.993 331.909 357.296C329.228 356.775 327.585 356.08 327.585 356.167Z" fill="#263238"/>
<path d="M326.72 356.775C327.474 356.541 328.2 356.22 328.882 355.82C330.527 355.048 332.352 354.748 334.157 354.952C335.972 355.345 337.611 356.32 338.826 357.73C339.319 358.332 339.869 358.884 340.469 359.379L339.086 357.469C338.49 356.85 337.854 356.27 337.183 355.733C336.321 355.086 335.309 354.668 334.243 354.518C332.335 354.261 330.395 354.626 328.709 355.559C327.996 355.877 327.328 356.286 326.72 356.775Z" fill="#263238"/>
<path d="M301.296 335.941L273.71 354.17C272.24 355.299 273.883 360.507 276.391 359.553C277.515 359.119 299.912 352.868 302.333 352C304.755 351.132 311.24 345.75 311.24 345.75L301.296 335.941Z" fill="#E12E5E"/>
<path d="M293.341 349.83C293.514 349.83 292.995 348.268 291.611 346.965C290.781 346.152 289.727 345.608 288.585 345.403C288.498 345.576 289.968 346.097 291.265 347.313C292.036 348.083 292.731 348.926 293.341 349.83Z" fill="#263238"/>
<path d="M295.762 347.66C295.474 346.652 294.904 345.748 294.119 345.056C293.448 344.228 292.544 343.623 291.524 343.319C291.524 343.493 292.649 344.187 293.773 345.316C294.897 346.445 295.675 347.747 295.762 347.66Z" fill="#263238"/>
<path d="M298.183 346.097C298.167 344.995 297.735 343.94 296.972 343.146C296.336 342.28 295.418 341.666 294.378 341.41C295.203 342.017 295.957 342.716 296.626 343.493C297.664 344.795 298.01 346.097 298.183 346.097Z" fill="#263238"/>
<path d="M296.626 342.799C296.379 342.148 296.177 341.481 296.021 340.802C295.808 340.068 295.692 339.309 295.675 338.545V337.243C295.678 337.029 295.738 336.819 295.848 336.635H296.194C296.365 336.773 296.506 336.944 296.61 337.138C296.714 337.332 296.779 337.545 296.799 337.764C296.976 338.144 297.065 338.559 297.059 338.979C297.122 339.732 297.093 340.49 296.972 341.236C296.822 341.924 296.707 342.62 296.626 343.319C296.99 342.708 297.226 342.029 297.318 341.323C297.511 340.558 297.57 339.764 297.491 338.979C297.489 338.504 297.402 338.033 297.232 337.59L296.972 336.896C296.926 336.744 296.848 336.603 296.743 336.483C296.639 336.364 296.511 336.268 296.367 336.201C296.213 336.16 296.051 336.163 295.898 336.209C295.745 336.255 295.608 336.342 295.502 336.462C295.321 336.68 295.228 336.959 295.243 337.243V338.632C295.329 339.423 295.474 340.206 295.675 340.976C295.872 341.639 296.195 342.258 296.626 342.799Z" fill="#263238"/>
<path d="M296.54 342.451C297.128 342.358 297.707 342.213 298.27 342.017C298.887 341.834 299.528 341.746 300.172 341.757H301.296C301.464 341.778 301.619 341.86 301.73 341.988C301.842 342.117 301.903 342.281 301.902 342.451C301.892 342.606 301.848 342.756 301.773 342.891C301.698 343.026 301.594 343.143 301.469 343.233C301.181 343.478 300.809 343.602 300.431 343.58C299.821 343.661 299.2 343.601 298.615 343.406L296.886 342.885C296.799 342.972 297.405 343.319 298.529 343.753C299.165 343.984 299.844 344.073 300.518 344.014C300.946 344.012 301.364 343.891 301.729 343.667C301.932 343.519 302.094 343.322 302.2 343.094C302.306 342.867 302.352 342.615 302.334 342.364C302.317 342.108 302.214 341.865 302.041 341.676C301.868 341.486 301.636 341.362 301.383 341.323H300.172L298.183 341.757C297.599 341.89 297.043 342.125 296.54 342.451Z" fill="#263238"/>
<path d="M279.764 358.598C280.104 358.338 280.348 357.971 280.456 357.556C280.657 356.57 280.471 355.543 279.937 354.691C279.677 354.17 279.331 353.736 279.072 353.302C278.777 352.963 278.459 352.644 278.121 352.348C278.007 352.235 277.871 352.147 277.723 352.087C277.575 352.027 277.416 351.998 277.256 352C277.083 352 276.91 352 276.91 352.087C276.91 352.174 277.429 352.087 277.948 352.608L278.726 353.563L279.504 354.865C279.964 355.652 280.175 356.56 280.11 357.469C280.023 358.164 279.677 358.511 279.764 358.598Z" fill="#263238"/>
<path d="M289.362 351.393C289.389 350.929 289.318 350.466 289.154 350.032C288.99 349.598 288.737 349.204 288.411 348.875C287.373 347.66 286.076 347.313 286.076 347.486C286.791 347.969 287.458 348.522 288.065 349.136C288.93 350.264 289.189 351.479 289.362 351.393Z" fill="#263238"/>
<path d="M308.474 346.705C308.474 346.618 308.041 346.965 307.263 347.486C306.217 348.23 305.119 348.898 303.977 349.483C302.301 350.378 300.567 351.161 298.789 351.827C296.8 352.608 294.465 353.302 292.13 353.997L279.851 357.556L276.132 358.771L274.835 359.205C274.835 359.292 275.267 359.119 276.219 358.945L279.937 357.903L292.216 354.431C294.638 353.736 296.886 353.042 298.962 352.261C300.743 351.568 302.477 350.756 304.15 349.83C305.62 348.962 306.658 348.181 307.436 347.66L308.474 346.705Z" fill="#263238"/>
<path d="M309.424 347.052C308.717 346.717 307.956 346.511 307.176 346.444C305.277 346.062 303.305 346.306 301.555 347.139C300.627 347.643 299.828 348.356 299.22 349.222C298.731 349.91 298.297 350.636 297.923 351.393C297.587 352.108 297.354 352.868 297.231 353.65L298.269 351.566C298.993 349.887 300.236 348.487 301.815 347.573C303.489 346.796 305.351 346.525 307.176 346.792C308.56 346.879 309.424 347.139 309.424 347.052Z" fill="#263238"/>
<path d="M356.64 293.231C356.64 293.231 364.682 296.095 364.682 305.124C364.769 322.312 330.006 341.323 330.006 341.323L283.741 310.593L280.888 309.377C280.888 309.377 343.323 285.852 356.64 293.231Z" fill="#292929"/>
<path d="M307.177 326.131L308.387 325.263L311.587 322.919C314.181 320.836 317.813 317.971 321.705 314.586C325.596 311.2 328.968 308.075 331.39 305.818L334.243 303.04C334.849 302.346 335.281 301.998 335.195 301.912L334.07 302.867L331.13 305.558C328.709 307.815 325.25 310.853 321.359 314.239L311.328 322.659L308.301 325.176L307.177 326.131Z" fill="#455A64"/>
<path d="M343.582 299.655C342.098 299.47 340.592 299.619 339.172 300.089C337.694 300.438 336.326 301.154 335.194 302.172C335.281 302.259 336.924 301.217 339.259 300.523C341.593 299.828 343.582 299.828 343.582 299.655Z" fill="#455A64"/>
<path d="M339.605 296.963C338.522 297.369 337.587 298.096 336.924 299.047C336.105 299.898 335.589 300.996 335.454 302.172C335.978 301.167 336.585 300.209 337.27 299.307C338.394 297.918 339.691 297.05 339.605 296.963Z" fill="#455A64"/>
<path d="M359.235 351.566C359.235 351.479 358.629 351.393 358.024 351.913C357.288 352.628 356.828 353.582 356.727 354.605C356.593 355.602 356.712 356.617 357.073 357.556C357.419 358.25 357.765 358.598 357.851 358.598C357.938 358.598 357.678 358.164 357.419 357.469C357.102 356.58 357.013 355.624 357.159 354.691C357.263 353.755 357.656 352.875 358.284 352.174C358.716 351.653 359.235 351.653 359.235 351.566Z" fill="#263238"/>
<path d="M346.09 265.105L329.574 307.033L258.664 308.162L257.28 304.342L282.185 303.387L294.119 266.233L346.09 265.105Z" fill="#C7B4FF"/>
<path d="M312.884 283.248C313.433 282.965 314.051 282.847 314.665 282.909C315.278 282.97 315.861 283.209 316.343 283.595C316.733 283.984 316.999 284.48 317.107 285.022C317.215 285.563 317.16 286.124 316.949 286.633C316.741 287.141 316.396 287.581 315.953 287.903C315.51 288.225 314.986 288.417 314.441 288.456C313.848 288.479 313.263 288.315 312.767 287.989C312.271 287.662 311.889 287.188 311.674 286.633C311.414 285.505 311.76 283.855 312.884 283.248Z" fill="#EBEBEB"/>
<path d="M334.416 343.406C334.416 343.406 269.041 300.436 266.36 299.481C263.68 298.526 257.194 294.359 250.708 296.182C244.223 298.005 238.515 303.735 235.575 312.242C233.932 317.103 233.154 325.437 232.808 331.6C232.254 339.069 234.646 346.458 239.467 352.174C241.583 354.815 244.402 356.801 247.595 357.903L249.757 358.511C262.123 361.202 274.748 355.646 281.753 344.969L283.223 342.712C283.223 342.712 326.028 358.424 326.72 358.251L334.416 343.406Z" fill="#292929"/>
<path d="M253.562 331.6L253.907 331.774L254.945 332.208L259.096 333.771L274.488 339.587L297.664 348.181C306.484 351.393 316.17 354.865 326.633 358.424H326.806V358.251L331.908 348.441C332.773 346.705 333.724 345.056 334.502 343.493V343.233H334.329L284.52 311.461L269.473 301.999L265.409 299.481L264.371 298.787L264.025 298.613L264.371 298.787L265.409 299.481L269.386 302.172L284.347 311.721L334.07 343.667V343.319L331.476 348.354L326.374 358.077H326.633C316.256 354.518 306.484 351.045 297.75 347.834L274.488 339.413L259.182 333.597L254.945 332.121L253.907 331.687L253.562 331.6Z" fill="#455A64"/>
<path d="M260.307 178.73C261.431 175.779 263.852 174.39 266.965 173.695C268.534 173.31 270.173 173.314 271.74 173.707C273.307 174.101 274.755 174.871 275.959 175.952C277.515 177.428 278.726 179.425 280.715 180.379C282.704 181.334 288.065 179.685 291.092 181.421C291.978 181.985 292.653 182.827 293.013 183.816C293.372 184.805 293.396 185.886 293.081 186.89C292.732 187.888 292.052 188.735 291.154 189.288C290.256 189.842 289.196 190.068 288.152 189.928C290.227 190.97 290.659 194.095 289.189 195.918C287.719 197.741 285.038 198.262 282.79 197.654C280.624 196.838 278.693 195.496 277.169 193.748C275.704 191.931 274.146 190.192 272.5 188.539C270.77 186.977 268.695 185.675 266.36 185.588C264.025 185.501 260.307 187.585 258.664 190.276C257.021 192.967 256.415 196.179 255.896 199.304C255.378 202.429 255.118 205.554 253.907 208.505C253.734 208.853 253.562 209.2 253.216 209.287C252.87 209.374 252.351 208.853 252.091 208.332C249.735 202.752 248.473 196.769 248.373 190.71C248.373 187.237 248.805 183.939 250.967 181.161C253.129 178.383 258.145 176.733 260.307 178.73Z" fill="#263238"/>
<path d="M252.957 192.793L248.114 227.777C247.922 229.196 248.017 230.639 248.396 232.02C248.775 233.4 249.429 234.69 250.318 235.809C251.207 236.929 252.313 237.856 253.569 238.535C254.826 239.213 256.206 239.629 257.627 239.757C260.309 239.98 262.973 239.158 265.067 237.46C267.16 235.763 268.522 233.321 268.868 230.642C269.301 228.037 269.56 225.867 269.647 225.52C269.733 225.173 278.64 225.954 280.456 217.186C281.407 213.019 282.531 204.165 283.483 196.092C283.954 191.942 282.856 187.765 280.406 184.389C277.955 181.013 274.332 178.684 270.252 177.862L269.387 177.688C260.221 176.386 253.995 183.505 252.957 192.793Z" fill="#FFBE9D"/>
<path d="M269.647 225.433C265.589 224.73 261.845 222.79 258.924 219.877C258.924 219.877 260.394 226.735 269.214 227.69L269.647 225.433Z" fill="#EB996E"/>
<path d="M279.764 201.474C279.701 201.805 279.512 202.098 279.238 202.292C278.964 202.487 278.626 202.567 278.294 202.516C278.134 202.494 277.98 202.441 277.841 202.36C277.702 202.278 277.581 202.169 277.484 202.04C277.388 201.911 277.318 201.763 277.279 201.606C277.239 201.45 277.232 201.286 277.256 201.127C277.277 200.966 277.33 200.812 277.411 200.672C277.493 200.533 277.601 200.411 277.73 200.314C277.859 200.217 278.006 200.147 278.162 200.107C278.318 200.068 278.481 200.06 278.64 200.085C278.968 200.128 279.268 200.297 279.477 200.555C279.686 200.813 279.789 201.142 279.764 201.474Z" fill="#263238"/>
<path d="M280.715 199.998C280.542 200.172 279.764 199.304 278.38 199.043C276.997 198.783 275.959 199.217 275.786 199.043C275.613 198.87 275.959 198.696 276.478 198.436C277.14 198.185 277.859 198.125 278.553 198.262C279.239 198.394 279.871 198.726 280.369 199.217C280.715 199.651 280.802 199.998 280.715 199.998Z" fill="#263238"/>
<path d="M266.533 199.304C266.452 199.625 266.259 199.906 265.99 200.097C265.72 200.288 265.391 200.376 265.063 200.345C264.742 200.284 264.454 200.111 264.248 199.857C264.043 199.603 263.933 199.284 263.939 198.957C264.002 198.626 264.19 198.332 264.465 198.138C264.739 197.944 265.077 197.864 265.409 197.915C265.737 197.958 266.037 198.126 266.246 198.385C266.455 198.643 266.558 198.972 266.533 199.304Z" fill="#263238"/>
<path d="M267.485 197.654C267.312 197.741 266.534 196.873 265.15 196.613C263.766 196.352 262.729 196.786 262.556 196.613C262.383 196.439 262.729 196.265 263.248 196.092C263.892 195.778 264.621 195.685 265.324 195.826C266.026 195.967 266.664 196.335 267.139 196.873C267.485 197.22 267.571 197.568 267.485 197.654Z" fill="#263238"/>
<path d="M270.338 208.592C271.088 208.545 271.842 208.574 272.586 208.679C272.932 208.679 273.278 208.679 273.451 208.419C273.501 208.069 273.471 207.713 273.365 207.377C273.192 206.509 273.105 205.554 272.932 204.599C272.24 200.519 271.808 197.307 271.981 197.22C272.154 197.134 272.846 200.432 273.451 204.512C273.624 205.467 273.797 206.422 273.883 207.29C273.977 207.513 274.018 207.754 274.003 207.995C273.988 208.236 273.917 208.47 273.797 208.679C273.71 208.94 273.365 209.026 273.192 209.113H272.586C271.816 209.05 271.058 208.875 270.338 208.592Z" fill="#263238"/>
<path d="M266.188 208.766C266.447 208.766 266.188 210.242 267.225 211.544C268.263 212.846 269.82 212.933 269.82 213.193C269.82 213.454 269.387 213.367 268.696 213.28C267.851 213.099 267.09 212.641 266.534 211.978C266.013 211.314 265.765 210.475 265.842 209.634C265.928 209.026 266.101 208.679 266.188 208.766Z" fill="#263238"/>
<path d="M268.868 192.446C268.696 192.793 267.398 192.359 265.755 192.185C264.112 192.012 262.815 192.272 262.642 191.925C262.469 191.578 262.902 191.404 263.421 191.144C264.188 190.833 265.019 190.713 265.842 190.796C266.673 190.855 267.477 191.123 268.177 191.578C268.696 191.925 268.955 192.272 268.868 192.446Z" fill="#263238"/>
<path d="M280.975 196.005C280.715 196.265 279.851 195.831 278.726 195.571C277.602 195.311 276.651 195.311 276.478 194.963C276.305 194.616 276.651 194.529 277.083 194.356C277.708 194.074 278.409 194.012 279.072 194.182C279.71 194.309 280.288 194.645 280.715 195.137C281.061 195.571 281.148 195.918 280.975 196.005Z" fill="#263238"/>
<path d="M252.351 199.391C252.265 199.304 246.73 196.439 245.692 202.429C244.655 208.419 250.967 208.245 250.967 208.071C250.967 207.898 252.351 199.391 252.351 199.391Z" fill="#FFBE9D"/>
<path d="M249.497 205.467H249.238C249.11 205.515 248.973 205.532 248.838 205.517C248.703 205.502 248.573 205.455 248.459 205.38C248.117 205.067 247.858 204.672 247.707 204.232C247.556 203.793 247.517 203.322 247.595 202.863C247.706 202.338 247.911 201.838 248.2 201.387C248.279 201.211 248.398 201.056 248.549 200.935C248.699 200.814 248.876 200.731 249.065 200.693C249.196 200.7 249.323 200.744 249.431 200.821C249.538 200.898 249.621 201.004 249.67 201.127C249.757 201.3 249.67 201.387 249.67 201.387C249.67 201.387 249.843 201.387 249.843 201.127C249.837 200.966 249.776 200.813 249.67 200.693C249.594 200.607 249.501 200.54 249.396 200.495C249.292 200.45 249.179 200.429 249.065 200.432C248.806 200.415 248.549 200.482 248.331 200.623C248.113 200.763 247.946 200.97 247.854 201.213C247.514 201.669 247.305 202.21 247.249 202.776C247.076 203.991 247.508 205.294 248.287 205.641C248.619 205.776 248.991 205.776 249.324 205.641C249.497 205.641 249.584 205.467 249.497 205.467Z" fill="#EB996E"/>
<path d="M285.644 194.703C283.616 194.785 281.597 194.387 279.75 193.543C277.903 192.699 276.278 191.431 275.008 189.842C273.192 187.671 272.068 184.72 269.56 183.331C267.825 182.521 265.848 182.397 264.026 182.984C262.214 183.638 260.563 184.674 259.183 186.022C259.961 190.797 257.8 195.484 255.724 199.911C255.67 200.174 255.556 200.42 255.391 200.631C255.226 200.842 255.014 201.012 254.773 201.127C253.995 201.561 252.957 200.953 252.525 200.172C251.842 198.865 251.542 197.39 251.66 195.918C251.71 192.581 252.385 189.283 253.649 186.196C254.977 183.116 257.171 180.492 259.961 178.643C263.542 176.478 267.809 175.764 271.895 176.647C275.95 177.626 279.605 179.839 282.358 182.984C283.694 184.378 284.673 186.075 285.212 187.932" fill="#263238"/>
<path d="M410.45 358.424H0.502983C0.225193 358.424 0 358.885 0 359.453V359.623C0 360.191 0.225193 360.652 0.502983 360.652H410.45C410.727 360.652 410.953 360.191 410.953 359.623V359.453C410.953 358.885 410.727 358.424 410.45 358.424Z" fill="#343434"/>
</svg>
